<?xml version="1.0" encoding="UTF-8" standalone="no"?>
<svg
   width="1024"
   height="1024"
   viewBox="0 0 1024 1024"
   version="1.1"
   id="svg11"
   sodipodi:docname="logo.svg"
   inkscape:version="1.4.3 (0d15f75042, 2025-12-25)"
   xml:space="preserve"
   xmlns:inkscape="http://www.inkscape.org/namespaces/inkscape"
   xmlns:sodipodi="http://sodipodi.sourceforge.net/DTD/sodipodi-0.dtd"
   xmlns="http://www.w3.org/2000/svg"
   xmlns:svg="http://www.w3.org/2000/svg"><defs
     id="defs11"><marker
       refX="0"
       refY="0"
       orient="auto"
       style="overflow:visible"
       id="Arrow2Mend"><path
         d="M 8.7185878,4.0337352 -2.2072895,0.01601326 8.7185884,-4.0017078 c -1.7454984,2.3720609 -1.7354408,5.6174519 -6e-7,8.035443 z"
         transform="scale(-0.6,-0.6)"
         style="font-size:12px;fill-rule:evenodd;stroke-width:0.625;stroke-linejoin:round"
         id="path4566"
         inkscape:connector-curvature="0" /></marker><marker
       refX="0"
       refY="0"
       orient="auto"
       style="overflow:visible"
       id="Arrow2Mstart"><path
         d="M 8.7185878,4.0337352 -2.2072895,0.01601326 8.7185884,-4.0017078 c -1.7454984,2.3720609 -1.7354408,5.6174519 -6e-7,8.035443 z"
         transform="scale(0.6,0.6)"
         style="font-size:12px;fill-rule:evenodd;stroke-width:0.625;stroke-linejoin:round"
         id="path4569"
         inkscape:connector-curvature="0" /></marker><marker
       refX="0"
       refY="0"
       orient="auto"
       style="overflow:visible"
       id="Arrow1Sstart"><path
         d="M 0,0 5,-5 -12.5,0 5,5 0,0 z"
         transform="matrix(0.2,0,0,0.2,1.2,0)"
         style="fill-rule:evenodd;stroke:#000000;stroke-width:1pt;marker-start:none"
         id="path4581"
         inkscape:connector-curvature="0" /></marker><marker
       refX="0"
       refY="0"
       orient="auto"
       style="overflow:visible"
       id="Arrow2Lstart"><path
         d="M 8.7185878,4.0337352 -2.2072895,0.01601326 8.7185884,-4.0017078 c -1.7454984,2.3720609 -1.7354408,5.6174519 -6e-7,8.035443 z"
         transform="matrix(1.1,0,0,1.1,1.1,0)"
         style="font-size:12px;fill-rule:evenodd;stroke-width:0.625;stroke-linejoin:round"
         id="path4575"
         inkscape:connector-curvature="0" /></marker><marker
       refX="0"
       refY="0"
       orient="auto"
       style="overflow:visible"
       id="Arrow2Lend"><path
         d="M 8.7185878,4.0337352 -2.2072895,0.01601326 8.7185884,-4.0017078 c -1.7454984,2.3720609 -1.7354408,5.6174519 -6e-7,8.035443 z"
         transform="matrix(-1.1,0,0,-1.1,-1.1,0)"
         style="font-size:12px;fill-rule:evenodd;stroke-width:0.625;stroke-linejoin:round"
         id="path4572"
         inkscape:connector-curvature="0" /></marker><marker
       refX="0"
       refY="0"
       orient="auto"
       style="overflow:visible"
       id="Arrow1Mstart"><path
         d="M 0,0 5,-5 -12.5,0 5,5 0,0 z"
         transform="matrix(0.4,0,0,0.4,4,0)"
         style="fill-rule:evenodd;stroke:#000000;stroke-width:1pt;marker-start:none"
         id="path4587"
         inkscape:connector-curvature="0" /></marker><inkscape:perspective
       id="perspective4493"
       inkscape:persp3d-origin="372.04724 : 350.78739 : 1"
       inkscape:vp_z="744.09448 : 526.18109 : 1"
       inkscape:vp_y="0 : 1000 : 0"
       inkscape:vp_x="0 : 526.18109 : 1"
       sodipodi:type="inkscape:persp3d">
		</inkscape:perspective><inkscape:perspective
       id="perspective4757"
       inkscape:persp3d-origin="372.04724 : 350.78739 : 1"
       inkscape:vp_z="744.09448 : 526.18109 : 1"
       inkscape:vp_y="0 : 1000 : 0"
       inkscape:vp_x="0 : 526.18109 : 1"
       sodipodi:type="inkscape:persp3d">
		</inkscape:perspective><inkscape:perspective
       id="perspective4846"
       inkscape:persp3d-origin="372.04724 : 350.78739 : 1"
       inkscape:vp_z="744.09448 : 526.18109 : 1"
       inkscape:vp_y="0 : 1000 : 0"
       inkscape:vp_x="0 : 526.18109 : 1"
       sodipodi:type="inkscape:persp3d">
		</inkscape:perspective><inkscape:perspective
       id="perspective4950"
       inkscape:persp3d-origin="372.04724 : 350.78739 : 1"
       inkscape:vp_z="744.09448 : 526.18109 : 1"
       inkscape:vp_y="0 : 1000 : 0"
       inkscape:vp_x="0 : 526.18109 : 1"
       sodipodi:type="inkscape:persp3d">
		</inkscape:perspective><inkscape:perspective
       id="perspective5060"
       inkscape:persp3d-origin="372.04724 : 350.78739 : 1"
       inkscape:vp_z="744.09448 : 526.18109 : 1"
       inkscape:vp_y="0 : 1000 : 0"
       inkscape:vp_x="0 : 526.18109 : 1"
       sodipodi:type="inkscape:persp3d">
		</inkscape:perspective><inkscape:perspective
       id="perspective4493-3"
       inkscape:persp3d-origin="372.04724 : 350.78739 : 1"
       inkscape:vp_z="744.09448 : 526.18109 : 1"
       inkscape:vp_y="0 : 1000 : 0"
       inkscape:vp_x="0 : 526.18109 : 1"
       sodipodi:type="inkscape:persp3d">
		</inkscape:perspective><inkscape:perspective
       id="perspective4757-6"
       inkscape:persp3d-origin="372.04724 : 350.78739 : 1"
       inkscape:vp_z="744.09448 : 526.18109 : 1"
       inkscape:vp_y="0 : 1000 : 0"
       inkscape:vp_x="0 : 526.18109 : 1"
       sodipodi:type="inkscape:persp3d">
		</inkscape:perspective><inkscape:perspective
       id="perspective4846-7"
       inkscape:persp3d-origin="372.04724 : 350.78739 : 1"
       inkscape:vp_z="744.09448 : 526.18109 : 1"
       inkscape:vp_y="0 : 1000 : 0"
       inkscape:vp_x="0 : 526.18109 : 1"
       sodipodi:type="inkscape:persp3d">
		</inkscape:perspective><inkscape:perspective
       id="perspective4950-5"
       inkscape:persp3d-origin="372.04724 : 350.78739 : 1"
       inkscape:vp_z="744.09448 : 526.18109 : 1"
       inkscape:vp_y="0 : 1000 : 0"
       inkscape:vp_x="0 : 526.18109 : 1"
       sodipodi:type="inkscape:persp3d">
		</inkscape:perspective><inkscape:perspective
       id="perspective5060-3"
       inkscape:persp3d-origin="372.04724 : 350.78739 : 1"
       inkscape:vp_z="744.09448 : 526.18109 : 1"
       inkscape:vp_y="0 : 1000 : 0"
       inkscape:vp_x="0 : 526.18109 : 1"
       sodipodi:type="inkscape:persp3d">
		</inkscape:perspective><inkscape:perspective
       id="perspective4493-9"
       inkscape:persp3d-origin="372.04724 : 350.78739 : 1"
       inkscape:vp_z="744.09448 : 526.18109 : 1"
       inkscape:vp_y="0 : 1000 : 0"
       inkscape:vp_x="0 : 526.18109 : 1"
       sodipodi:type="inkscape:persp3d">
		</inkscape:perspective><inkscape:perspective
       id="perspective4757-1"
       inkscape:persp3d-origin="372.04724 : 350.78739 : 1"
       inkscape:vp_z="744.09448 : 526.18109 : 1"
       inkscape:vp_y="0 : 1000 : 0"
       inkscape:vp_x="0 : 526.18109 : 1"
       sodipodi:type="inkscape:persp3d">
		</inkscape:perspective><inkscape:perspective
       id="perspective4846-2"
       inkscape:persp3d-origin="372.04724 : 350.78739 : 1"
       inkscape:vp_z="744.09448 : 526.18109 : 1"
       inkscape:vp_y="0 : 1000 : 0"
       inkscape:vp_x="0 : 526.18109 : 1"
       sodipodi:type="inkscape:persp3d">
		</inkscape:perspective><inkscape:perspective
       id="perspective4950-7"
       inkscape:persp3d-origin="372.04724 : 350.78739 : 1"
       inkscape:vp_z="744.09448 : 526.18109 : 1"
       inkscape:vp_y="0 : 1000 : 0"
       inkscape:vp_x="0 : 526.18109 : 1"
       sodipodi:type="inkscape:persp3d">
		</inkscape:perspective><inkscape:perspective
       id="perspective5060-0"
       inkscape:persp3d-origin="372.04724 : 350.78739 : 1"
       inkscape:vp_z="744.09448 : 526.18109 : 1"
       inkscape:vp_y="0 : 1000 : 0"
       inkscape:vp_x="0 : 526.18109 : 1"
       sodipodi:type="inkscape:persp3d">
		</inkscape:perspective></defs><sodipodi:namedview
     id="namedview11"
     pagecolor="#ffffff"
     bordercolor="#666666"
     borderopacity="1.0"
     inkscape:showpageshadow="2"
     inkscape:pageopacity="0.0"
     inkscape:pagecheckerboard="0"
     inkscape:deskcolor="#d1d1d1"
     showgrid="false"
     inkscape:zoom="1.1318359"
     inkscape:cx="512"
     inkscape:cy="512"
     inkscape:window-width="2560"
     inkscape:window-height="1368"
     inkscape:window-x="0"
     inkscape:window-y="0"
     inkscape:window-maximized="1"
     inkscape:current-layer="g30" /><g
     inkscape:groupmode="layer"
     id="layer1"
     inkscape:label="Original"
     style="display:none"><path
       fill="#ffffff"
       d="M 0,0 H 1024 V 1024 H 0 Z"
       id="path1"
       inkscape:label="background" /><g
       id="g29"
       inkscape:label="logo-group"><g
         id="g24"
         inkscape:label="tiles-group"><g
           id="g19"
           inkscape:label="l-group"><path
             d="m 663.305,444.657 c 4.225,-0.097 11.466,-1.162 15.272,0.696 1.362,0.665 1.86,1.39 2.27,2.809 1.603,5.548 0.714,13.201 0.699,18.977 -0.026,10.1 -1.347,63.776 0.921,68.843 2.687,6.004 37.277,0.07 44.053,2.713 1.836,0.716 3.068,1.975 3.791,3.802 1.079,2.731 1.668,11.234 0.197,13.805 -1.026,1.795 -2.672,2.152 -4.515,2.652 -9.002,0.284 -61.267,1.209 -66.034,-1.516 -0.815,-2.79 -1.282,-6.014 -1.305,-8.932 -0.232,-30.185 0.24,-60.377 0.172,-90.562 -0.006,-2.599 0.03,-5.194 0.081,-7.792 0.067,-3.446 1.472,-4.287 4.398,-5.495 z"
             id="path18"
             inkscape:label="l" /><path
             fill="#c60c30"
             d="m 753.983,537.053 c 5.741,-0.427 10.32,0.262 10.893,7.197 0.445,5.391 -6.912,11.951 -10.361,15.829 2.325,-0.043 7.652,-0.566 9.813,0.26 0.4,0.153 0.278,3.796 -0.068,3.829 -5.301,0.491 -11.322,0.214 -16.799,0.232 -2.657,-0.329 1.862,-4.715 2.519,-5.55 2.973,-3.775 10.657,-9.494 10.44,-14.612 -0.125,-2.94 -4.638,-5.162 -6.774,-2.423 -0.807,0.466 -1.736,3.61 -2.016,3.783 -6.011,3.699 -4.991,-4.796 2.353,-8.545 z"
             id="path19"
             inkscape:label="2" /></g><g
           id="g21"
           inkscape:label="h-group"><path
             d="m 466.255,445.137 c 3.883,-0.118 13.086,-0.989 16.101,1.22 3.193,4.814 0.542,25.586 1.26,32.368 0.554,5.239 0.799,7.179 6.984,7.611 6.298,0.44 12.314,-0.519 18.59,-0.045 2.71,0.058 13.383,1.088 14.085,-2.74 2.057,-11.476 -1.92,-25.475 1.472,-36.5 0.863,-2.804 16.386,-2.822 18.548,-0.753 2.326,2.226 2.436,5.544 2.382,8.523 -0.578,32.344 0.165,64.72 -0.697,97.064 -0.147,5.537 -2.513,6.222 -7.657,6.44 -2.829,0.12 -5.811,-0.056 -8.651,-0.121 -1.495,-0.291 -3.117,-0.646 -3.95,-2.061 -4.087,-6.94 2.138,-45.331 -2.786,-50.116 -0.973,-0.946 -2.463,-1.236 -3.754,-1.409 -4.14,-0.556 -8.563,0.053 -12.747,0.038 -4.653,-0.017 -9.329,-0.402 -13.978,-0.305 -2.212,0.046 -5.404,0.3 -6.94,2.165 -3.441,4.177 1.571,47.345 -2.265,50.637 -1.985,1.704 -5.735,1.599 -8.234,1.595 -3.745,-0.005 -8.549,0.012 -11.35,-2.793 -0.884,-2.641 -0.446,-19.538 -0.445,-23.529 l 0.104,-53.959 c 0.038,-9.127 -0.84,-21.49 0.668,-30.604 0.227,-1.369 2.027,-2.166 3.26,-2.726 z"
             id="path20"
             inkscape:label="h" /><path
             fill="#c60c30"
             d="m 563.726,536.562 c 4.788,0.126 8.014,1.885 8.67,6.941 0.821,0.647 -1.716,5.486 -2.171,5.179 3.114,2.098 4.222,7.744 3.003,10.506 -2.597,5.883 -7.217,6.418 -12.498,4.89 -1.858,-0.538 -4.899,-4.397 -4.036,-6.274 0.208,-0.486 3.135,-0.888 3.596,-0.981 0.896,1.367 0.532,2.706 1.895,3.273 6.719,2.798 10.901,-7.676 3.814,-9.24 -1.072,-0.063 -3.52,-0.106 -2.786,-2.413 0.792,-2.493 7.889,-1.551 3.815,-6.973 -1.426,-1.898 -5.398,-1.018 -6.16,1.19 -0.194,0.562 -3.912,0.757 -4.299,-0.015 -0.034,-3.512 5.378,-5.574 7.157,-6.083 z"
             id="path21"
             inkscape:label="3" /></g><g
           id="g23"
           inkscape:label="n-group"><path
             d="m 334.38,517.065 c 1.302,-21.555 0.724,-43.238 1.389,-64.811 -0.039,-5.197 2.193,-7.762 7.599,-7.448 4.538,0.263 9.669,-1.556 12.972,2.519 0.599,7.566 0.388,17.442 0.433,25.146 0.107,13.891 0.139,27.782 0.097,41.673 l -0.156,26.176 c -0.017,3.854 0.639,14.612 -1.314,17.387 -1.864,1.019 -2.732,0.834 -4.943,0.879 -5.439,0.046 -10.878,-0.012 -16.315,-0.172 -3.96,-4.304 -13.13,-21.446 -16.337,-27.416 -8.405,-15.648 -18.732,-32.159 -25.644,-48.352 -0.109,16.793 -0.086,33.587 0.069,50.379 0.04,6.849 0.087,13.885 0.181,20.744 0.019,1.398 -0.535,2.447 -1.48,3.455 -4.038,2.036 -14.28,2.328 -17.655,-1.166 -0.648,-1.899 -0.846,-3.739 -0.859,-5.742 -0.154,-24.458 0.08,-48.917 0.08,-73.374 10e-4,-9.026 -0.604,-18.26 0.247,-27.219 0.236,-2.485 1.715,-3.394 3.581,-4.661 5.464,-0.334 13.645,-0.294 19.074,-0.08 2.602,3.297 8.312,13.998 10.6,18.092 7.03,12.508 13.846,25.135 20.447,37.875 2.742,5.353 5.132,10.787 7.934,16.116 z"
             id="path22"
             inkscape:label="n" /><path
             fill="#c60c30"
             d="m 378.161,539.745 c 0.59,-0.029 0.875,-0.039 0.875,0.73 -0.005,7.849 0.539,16.125 -0.118,23.859 0.015,-0.181 -3.649,1.675 -3.877,-1.209 -0.004,-5.847 0.271,-12.82 -0.277,-18.263 -0.067,-0.661 -5.763,1.477 -3.084,-4.206 0.358,-0.758 5.756,-0.86 6.481,-0.911 z"
             id="path23"
             inkscape:label="1" /></g></g><g
         id="g28"
         inkscape:label="stick-group"><g
           id="g25"
           inkscape:label="blade-group"><path
             fill="#050c54"
             d="m 778.855,590.89 c -6.608,9.371 -12.214,18.414 -21.17,25.85 -17.005,14.118 -36.537,12.258 -57.16,12.292 l -45.468,0.131 -146.557,0.828 -169.344,1.169 -53.414,0.646 c -12.789,0.202 -28.225,0.807 -40.731,-0.513 -30.178,-3.185 -56.658,-18.539 -75.374,-42.389 -12.25,-16.565 -23.794,-37.345 -30.563,-56.763 -7.507,-21.533 10.784,-42.773 33.128,-38.847 5.51,0.966 10.552,3.71 14.353,7.813 4.516,4.968 7.01,11.995 10.811,18.461 15.715,26.735 28.064,70.91 62.366,78.509 4.149,0.92 15.586,0.595 20.267,0.671 14,0.216 28.002,0.315 42.004,0.297 l 124.994,0.336 172.674,0.254 c 26.582,0.202 53.166,0.22 79.748,0.054 17.741,-0.038 35.847,0.486 53.52,-1.065 9.564,-0.839 16.029,-2.407 23.767,-8.212 z"
             id="path24"
             inkscape:label="blade" /><path
             fill="#525576"
             d="m 787.39,576.075 0.506,0.953 c -2.475,4.064 -5.916,10.372 -9.041,13.862 l -2.149,-0.478 c 6.284,-5.981 6.49,-6.78 10.684,-14.337 z"
             id="path25"
             inkscape:label="blade-connect" /></g><g
           id="g27"
           inkscape:label="shaft-group"><path
             fill="#050c54"
             d="m 789.429,568.434 c 0.261,-9.792 -1.043,-24.314 0.268,-33.319 0.389,-2.674 9.422,-19.096 11.056,-22.073 l 19.278,-34.776 27.711,-49.473 c 4.283,-7.655 12.678,-24.68 18.136,-30.759 7.013,-2.272 16.368,2.988 18.699,9.418 1.684,4.648 -7.069,17.385 -9.65,21.828 l -56.014,96.109 c -6.548,11.294 -13.203,22.525 -19.963,33.693 -1.821,3.008 -6.653,11.427 -8.601,13.948 -0.885,-1.848 -0.692,-2.462 -0.92,-4.596 z"
             id="path26"
             inkscape:label="shaft" /><path
             fill="#003087"
             d="m 789.429,568.434 c 0.228,2.134 0.035,2.748 0.92,4.596 -0.69,1.392 -1.655,2.569 -2.453,3.998 l -0.506,-0.953 c 1.106,-2.737 1.365,-4.458 1.944,-7.202 z"
             id="path27"
             inkscape:label="shaft-connect" /></g></g></g></g><g
     inkscape:groupmode="layer"
     id="layer2"
     inkscape:label="Version 2"
     style="display:inline"><g
       id="g16"
       inkscape:label="tiles-group"><g
         id="g14"
         inkscape:label="l-group"><path
           d="m 663.305,444.657 c 4.225,-0.097 11.466,-1.162 15.272,0.696 1.362,0.665 1.86,1.39 2.27,2.809 1.603,5.548 0.714,13.201 0.699,18.977 -0.026,10.1 -1.347,63.776 0.921,68.843 2.687,6.004 37.277,0.07 44.053,2.713 1.836,0.716 3.068,1.975 3.791,3.802 1.079,2.731 1.668,11.234 0.197,13.805 -1.026,1.795 -2.672,2.152 -4.515,2.652 -9.002,0.284 -61.267,1.209 -66.034,-1.516 -0.815,-2.79 -1.282,-6.014 -1.305,-8.932 -0.232,-30.185 0.24,-60.377 0.172,-90.562 -0.006,-2.599 0.03,-5.194 0.081,-7.792 0.067,-3.446 1.472,-4.287 4.398,-5.495 z"
           id="path6"
           inkscape:label="l" /><path
           fill="#c60c30"
           d="m 753.983,537.053 c 5.741,-0.427 10.32,0.262 10.893,7.197 0.445,5.391 -6.912,11.951 -10.361,15.829 2.325,-0.043 7.652,-0.566 9.813,0.26 0.4,0.153 0.278,3.796 -0.068,3.829 -5.301,0.491 -11.322,0.214 -16.799,0.232 -2.657,-0.329 1.862,-4.715 2.519,-5.55 2.973,-3.775 10.657,-9.494 10.44,-14.612 -0.125,-2.94 -4.638,-5.162 -6.774,-2.423 -0.807,0.466 -1.736,3.61 -2.016,3.783 -6.011,3.699 -4.991,-4.796 2.353,-8.545 z"
           id="path7"
           inkscape:label="2" /></g><g
         id="g13"
         inkscape:label="h-group"><path
           d="m 466.255,445.137 c 3.883,-0.118 13.086,-0.989 16.101,1.22 3.193,4.814 0.542,25.586 1.26,32.368 0.554,5.239 0.799,7.179 6.984,7.611 6.298,0.44 12.314,-0.519 18.59,-0.045 2.71,0.058 13.383,1.088 14.085,-2.74 2.057,-11.476 -1.92,-25.475 1.472,-36.5 0.863,-2.804 16.386,-2.822 18.548,-0.753 2.326,2.226 2.436,5.544 2.382,8.523 -0.578,32.344 0.165,64.72 -0.697,97.064 -0.147,5.537 -2.513,6.222 -7.657,6.44 -2.829,0.12 -5.811,-0.056 -8.651,-0.121 -1.495,-0.291 -3.117,-0.646 -3.95,-2.061 -4.087,-6.94 2.138,-45.331 -2.786,-50.116 -0.973,-0.946 -2.463,-1.236 -3.754,-1.409 -4.14,-0.556 -8.563,0.053 -12.747,0.038 -4.653,-0.017 -9.329,-0.402 -13.978,-0.305 -2.212,0.046 -5.404,0.3 -6.94,2.165 -3.441,4.177 1.571,47.345 -2.265,50.637 -1.985,1.704 -5.735,1.599 -8.234,1.595 -3.745,-0.005 -8.549,0.012 -11.35,-2.793 -0.884,-2.641 -0.446,-19.538 -0.445,-23.529 l 0.104,-53.959 c 0.038,-9.127 -0.84,-21.49 0.668,-30.604 0.227,-1.369 2.027,-2.166 3.26,-2.726 z"
           id="path4"
           inkscape:label="h" /><path
           fill="#c60c30"
           d="m 563.726,536.562 c 4.788,0.126 8.014,1.885 8.67,6.941 0.821,0.647 -1.716,5.486 -2.171,5.179 3.114,2.098 4.222,7.744 3.003,10.506 -2.597,5.883 -7.217,6.418 -12.498,4.89 -1.858,-0.538 -4.899,-4.397 -4.036,-6.274 0.208,-0.486 3.135,-0.888 3.596,-0.981 0.896,1.367 0.532,2.706 1.895,3.273 6.719,2.798 10.901,-7.676 3.814,-9.24 -1.072,-0.063 -3.52,-0.106 -2.786,-2.413 0.792,-2.493 7.889,-1.551 3.815,-6.973 -1.426,-1.898 -5.398,-1.018 -6.16,1.19 -0.194,0.562 -3.912,0.757 -4.299,-0.015 -0.034,-3.512 5.378,-5.574 7.157,-6.083 z"
           id="path8"
           inkscape:label="3" /></g><g
         id="g12"
         inkscape:label="n-group"><path
           d="m 334.38,517.065 c 1.302,-21.555 0.724,-43.238 1.389,-64.811 -0.039,-5.197 2.193,-7.762 7.599,-7.448 4.538,0.263 9.669,-1.556 12.972,2.519 0.599,7.566 0.388,17.442 0.433,25.146 0.107,13.891 0.139,27.782 0.097,41.673 l -0.156,26.176 c -0.017,3.854 0.639,14.612 -1.314,17.387 -1.864,1.019 -2.732,0.834 -4.943,0.879 -5.439,0.046 -10.878,-0.012 -16.315,-0.172 -3.96,-4.304 -13.13,-21.446 -16.337,-27.416 -8.405,-15.648 -18.732,-32.159 -25.644,-48.352 -0.109,16.793 -0.086,33.587 0.069,50.379 0.04,6.849 0.087,13.885 0.181,20.744 0.019,1.398 -0.535,2.447 -1.48,3.455 -4.038,2.036 -14.28,2.328 -17.655,-1.166 -0.648,-1.899 -0.846,-3.739 -0.859,-5.742 -0.154,-24.458 0.08,-48.917 0.08,-73.374 10e-4,-9.026 -0.604,-18.26 0.247,-27.219 0.236,-2.485 1.715,-3.394 3.581,-4.661 5.464,-0.334 13.645,-0.294 19.074,-0.08 2.602,3.297 8.312,13.998 10.6,18.092 7.03,12.508 13.846,25.135 20.447,37.875 2.742,5.353 5.132,10.787 7.934,16.116 z"
           id="path3"
           inkscape:label="n" /><path
           fill="#c60c30"
           d="m 378.161,539.745 c 0.59,-0.029 0.875,-0.039 0.875,0.73 -0.005,7.849 0.539,16.125 -0.118,23.859 0.015,-0.181 -3.649,1.675 -3.877,-1.209 -0.004,-5.847 0.271,-12.82 -0.277,-18.263 -0.067,-0.661 -5.763,1.477 -3.084,-4.206 0.358,-0.758 5.756,-0.86 6.481,-0.911 z"
           id="path9"
           inkscape:label="1" /></g></g><g
       id="g17"
       inkscape:label="stick-group"><g
         id="g11"
         inkscape:label="blade-group"><path
           fill="#050c54"
           d="m 778.855,590.89 c -6.608,9.371 -12.214,18.414 -21.17,25.85 -17.005,14.118 -36.537,12.258 -57.16,12.292 l -45.468,0.131 -146.557,0.828 -169.344,1.169 -53.414,0.646 c -12.789,0.202 -28.225,0.807 -40.731,-0.513 -30.178,-3.185 -56.658,-18.539 -75.374,-42.389 -12.25,-16.565 -23.794,-37.345 -30.563,-56.763 -7.507,-21.533 10.784,-42.773 33.128,-38.847 5.51,0.966 10.552,3.71 14.353,7.813 4.516,4.968 7.01,11.995 10.811,18.461 15.715,26.735 28.064,70.91 62.366,78.509 4.149,0.92 15.586,0.595 20.267,0.671 14,0.216 28.002,0.315 42.004,0.297 l 124.994,0.336 172.674,0.254 c 26.582,0.202 53.166,0.22 79.748,0.054 17.741,-0.038 35.847,0.486 53.52,-1.065 9.564,-0.839 16.029,-2.407 23.767,-8.212 z"
           id="path2"
           inkscape:label="blade" /><path
           fill="#525576"
           d="m 787.39,576.075 0.506,0.953 c -2.475,4.064 -5.916,10.372 -9.041,13.862 l -2.149,-0.478 c 6.284,-5.981 6.49,-6.78 10.684,-14.337 z"
           id="path10"
           inkscape:label="blade-connect" /></g><g
         id="g15"
         inkscape:label="shaft-group"><path
           fill="#050c54"
           d="m 789.429,568.434 c 0.261,-9.792 -1.043,-24.314 0.268,-33.319 0.389,-2.674 9.422,-19.096 11.056,-22.073 l 19.278,-34.776 27.711,-49.473 c 4.283,-7.655 12.678,-24.68 18.136,-30.759 7.013,-2.272 16.368,2.988 18.699,9.418 1.684,4.648 -7.069,17.385 -9.65,21.828 l -56.014,96.109 c -6.548,11.294 -13.203,22.525 -19.963,33.693 -1.821,3.008 -6.653,11.427 -8.601,13.948 -0.885,-1.848 -0.692,-2.462 -0.92,-4.596 z"
           id="path5"
           inkscape:label="shaft" /><path
           fill="#003087"
           d="m 789.429,568.434 c 0.228,2.134 0.035,2.748 0.92,4.596 -0.69,1.392 -1.655,2.569 -2.453,3.998 l -0.506,-0.953 c 1.106,-2.737 1.365,-4.458 1.944,-7.202 z"
           id="path11"
           inkscape:label="shaft-connect" /></g></g></g><g
     inkscape:groupmode="layer"
     id="layer3"
     inkscape:label="Sources"
     style="display:none"><g
       id="g30"
       transform="translate(339.57452,440.2522)"
       inkscape:label="stick-group"
       style="display:inline"><path
         inkscape:connector-curvature="0"
         d="m 14.148215,96.933877 c 0.263852,-10.554087 0,-10.290237 0,-10.290237 l 232.003405,-0.74629 6.10061,-0.26385 4.48549,-0.52771 4.74934,-1.39654 3.84849,-2.0788 3.8805,-3.24352 29.10103,-32.37655 3.82586,-4.0897 2.37467,-1.31927 h 1.97889 l 1.97889,1.05541 4.35356,3.03431 1.4512,2.50658 -10e-6,2.63854 -0.92348,3.03429 -5.5409,7.38787 -10.02639,11.60949 -11.60949,12.92877 -6.20053,6.596307 -4.22164,4.48549 z"
         style="fill:#c87137;fill-opacity:1;fill-rule:evenodd;stroke:#000000;stroke-width:1px;stroke-linecap:butt;stroke-linejoin:miter;stroke-opacity:1"
         id="path1932" /><path
         inkscape:connector-curvature="0"
         d="m 13.895491,109.76349 260.754009,0.0123"
         style="fill:none;stroke:#000000;stroke-width:1.04387px;stroke-linecap:butt;stroke-linejoin:miter;stroke-opacity:1;marker-start:url(#Arrow2Mstart);marker-end:url(#Arrow2Mend)"
         id="path3533" /><text
         x="128.47325"
         y="126.4108"
         style="font-style:normal;font-variant:normal;font-weight:normal;font-stretch:normal;font-size:10px;line-height:0%;font-family:'Bitstream Vera Sans';text-align:start;writing-mode:lr-tb;text-anchor:start;fill:#000000;fill-opacity:1;stroke:none"
         id="text4610"
         xml:space="preserve"><tspan
           x="128.47325"
           y="126.4108"
           id="tspan4612">163 cm</tspan></text><path
         inkscape:connector-curvature="0"
         d="M 284.18781,103.78248 324.88722,55.688161"
         style="fill:none;stroke:#000000;stroke-width:1.08974px;stroke-linecap:butt;stroke-linejoin:miter;stroke-opacity:1;marker-start:url(#Arrow2Mstart);marker-end:url(#Arrow2Mend)"
         id="path4739" /><text
         x="302.04498"
         y="93.835777"
         style="font-style:normal;font-variant:normal;font-weight:normal;font-stretch:normal;font-size:10px;line-height:0%;font-family:'Bitstream Vera Sans';text-align:start;writing-mode:lr-tb;text-anchor:start;fill:#000000;fill-opacity:1;stroke:none"
         id="text5626"
         xml:space="preserve"><tspan
           x="302.04498"
           y="93.835777"
           id="tspan5628">32 cm</tspan></text><path
         inkscape:connector-curvature="0"
         d="m 310.19972,30.99112 12.80151,10.83204"
         style="fill:none;stroke:#000000;stroke-width:1px;stroke-linecap:butt;stroke-linejoin:miter;stroke-opacity:1;marker-start:url(#Arrow2Mstart);marker-end:url(#Arrow2Mend)"
         id="path5630" /><text
         x="312.34232"
         y="24.233238"
         style="font-style:normal;font-variant:normal;font-weight:normal;font-stretch:normal;font-size:10px;line-height:0%;font-family:'Bitstream Vera Sans';text-align:center;writing-mode:lr-tb;text-anchor:middle;fill:#000000;fill-opacity:1;stroke:none"
         id="text7408"
         xml:space="preserve"><tspan
           x="309.8765"
           y="24.233238"
           id="tspan7410"
           style="text-align:center;text-anchor:middle">5-7,5 cm </tspan></text></g><g
       id="g5454"
       transform="translate(444.5,444.5)"
       inkscape:label="n-group"
       style="display:inline">
	<g
   id="flowRoot4498"
   transform="matrix(0.2827418,0,0,0.264,25.034186,-6.75758)">
	</g>
	<path
   id="rect3326"
   fill="#d4c462"
   d="M 15.464,5 H 119.536 C 125.333,5 130,9.667 130,15.464 V 119.536 C 130,125.333 125.333,130 119.536,130 H 15.464 C 9.667,130 5,125.333 5,119.536 V 15.464 C 5,9.667 9.667,5 15.464,5 Z" />
	<path
   id="flowRoot4964"
   d="M 99,103 H 95.5 V 82.74 c -0.843,0.73 -1.947,1.461 -3.315,2.19 -1.368,0.729 -2.596,1.278 -3.685,1.643 V 83.5 c 1.957,-0.836 3.668,-1.849 5.133,-3.038 1.465,-1.189 2.502,-2.343 3.111,-3.462 H 99 Z" />
	<path
   id="flowRoot5413"
   d="m 38.5,92.25 v -58 h 5.858 L 67.025,79.787 V 34.25 H 72.5 v 58 H 66.642 L 43.975,46.673 V 92.25 Z" />
</g><g
       id="g31"
       transform="translate(444.5,444.5)"
       inkscape:label="l-group"
       style="display:inline"><g
         id="flowRoot4498-5"
         transform="matrix(0.2827418,0,0,0.264,25.034186,-6.75758)">
</g><path
         id="rect3326-6"
         fill="#d4c462"
         d="M 15.464,5 H 119.536 C 125.333,5 130,9.667 130,15.464 V 119.536 C 130,125.333 125.333,130 119.536,130 H 15.464 C 9.667,130 5,125.333 5,119.536 V 15.464 C 5,9.667 9.667,5 15.464,5 Z" /><path
         id="flowRoot4964-2"
         d="M 99,103 H 95.5 V 82.74 c -0.843,0.73 -1.947,1.461 -3.315,2.19 -1.368,0.729 -2.596,1.278 -3.685,1.643 V 83.5 c 1.957,-0.836 3.668,-1.849 5.133,-3.038 1.465,-1.189 2.502,-2.343 3.111,-3.462 H 99 Z" /><path
         id="flowRoot5376"
         d="m 40.5,92.25 v -58 h 6.354 V 85.406 H 70.5 v 6.844 z" /></g><g
       id="g5273"
       transform="translate(444.5,444.5)"
       inkscape:label="h-group"
       style="display:inline">
	<g
   id="flowRoot4498-9"
   transform="matrix(0.2827418,0,0,0.264,25.034186,-6.75758)">
	</g>
	<path
   id="rect3326-3"
   fill="#d4c462"
   d="M 15.464,5 H 119.536 C 125.333,5 130,9.667 130,15.464 V 119.536 C 130,125.333 125.333,130 119.536,130 H 15.464 C 9.667,130 5,125.333 5,119.536 V 15.464 C 5,9.667 9.667,5 15.464,5 Z" />
	<path
   id="flowRoot5081"
   d="M 98.535,103 V 96.775 H 88.5 V 93.848 L 99.057,77 h 2.318 v 16.849 h 3.125 v 2.927 h -3.125 V 103 Z m 0,-9.151 V 82.125 l -7.242,11.724 z" />
	<path
   id="flowRoot5263"
   d="m 40.5,92.25 v -58 h 5.736 V 58.067 H 68.764 V 34.25 H 74.5 v 58 H 68.764 V 64.912 H 46.236 V 92.25 Z" />
</g></g></svg>
