<?xml version="1.0" encoding="utf-8" ?><svg xmlns="http://www.w3.org/2000/svg" xmlns:xlink="http://www.w3.org/1999/xlink" width="1024" height="1024" viewBox="0 0 1024 1024"><path fill="white" d="M0 0L1024 0L1024 1024L0 1024L0 0Z"/><path fill="#050C54" d="M778.855 590.89C772.247 600.261 766.641 609.304 757.685 616.74C740.68 630.858 721.148 628.998 700.525 629.032L655.057 629.163L508.5 629.991L339.156 631.16L285.742 631.806C272.953 632.008 257.517 632.613 245.011 631.293C214.833 628.108 188.353 612.754 169.637 588.904C157.387 572.339 145.843 551.559 139.074 532.141C131.567 510.608 149.858 489.368 172.202 493.294C177.712 494.26 182.754 497.004 186.555 501.107C191.071 506.075 193.565 513.102 197.366 519.568C213.081 546.303 225.43 590.478 259.732 598.077C263.881 598.997 275.318 598.672 279.999 598.748C293.999 598.964 308.001 599.063 322.003 599.045L446.997 599.381L619.671 599.635C646.253 599.837 672.837 599.855 699.419 599.689C717.16 599.651 735.266 600.175 752.939 598.624C762.503 597.785 768.968 596.217 776.706 590.412L778.855 590.89Z"/><path d="M334.38 517.065C335.682 495.51 335.104 473.827 335.769 452.254C335.73 447.057 337.962 444.492 343.368 444.806C347.906 445.069 353.037 443.25 356.34 447.325C356.939 454.891 356.728 464.767 356.773 472.471C356.88 486.362 356.912 500.253 356.87 514.144L356.714 540.32C356.697 544.174 357.353 554.932 355.4 557.707C353.536 558.726 352.668 558.541 350.457 558.586C345.018 558.632 339.579 558.574 334.142 558.414C330.182 554.11 321.012 536.968 317.805 530.998C309.4 515.35 299.073 498.839 292.161 482.646C292.052 499.439 292.075 516.233 292.23 533.025C292.27 539.874 292.317 546.91 292.411 553.769C292.43 555.167 291.876 556.216 290.931 557.224C286.893 559.26 276.651 559.552 273.276 556.058C272.628 554.159 272.43 552.319 272.417 550.316C272.263 525.858 272.497 501.399 272.497 476.942C272.498 467.916 271.893 458.682 272.744 449.723C272.98 447.238 274.459 446.329 276.325 445.062C281.789 444.728 289.97 444.768 295.399 444.982C298.001 448.279 303.711 458.98 305.999 463.074C313.029 475.582 319.845 488.209 326.446 500.949C329.188 506.302 331.578 511.736 334.38 517.065Z"/><path d="M466.255 445.137C470.138 445.019 479.341 444.148 482.356 446.357C485.549 451.171 482.898 471.943 483.616 478.725C484.17 483.964 484.415 485.904 490.6 486.336C496.898 486.776 502.914 485.817 509.19 486.291C511.9 486.349 522.573 487.379 523.275 483.551C525.332 472.075 521.355 458.076 524.747 447.051C525.61 444.247 541.133 444.229 543.295 446.298C545.621 448.524 545.731 451.842 545.677 454.821C545.099 487.165 545.842 519.541 544.98 551.885C544.833 557.422 542.467 558.107 537.323 558.325C534.494 558.445 531.512 558.269 528.672 558.204C527.177 557.913 525.555 557.558 524.722 556.143C520.635 549.203 526.86 510.812 521.936 506.027C520.963 505.081 519.473 504.791 518.182 504.618C514.042 504.062 509.619 504.671 505.435 504.656C500.782 504.639 496.106 504.254 491.457 504.351C489.245 504.397 486.053 504.651 484.517 506.516C481.076 510.693 486.088 553.861 482.252 557.153C480.267 558.857 476.517 558.752 474.018 558.748C470.273 558.743 465.469 558.76 462.668 555.955C461.784 553.314 462.222 536.417 462.223 532.426L462.327 478.467C462.365 469.34 461.487 456.977 462.995 447.863C463.222 446.494 465.022 445.697 466.255 445.137Z"/><path fill="#050C54" d="M789.429 568.434C789.69 558.642 788.386 544.12 789.697 535.115C790.086 532.441 799.119 516.019 800.753 513.042L820.031 478.266L847.742 428.793C852.025 421.138 860.42 404.113 865.878 398.034C872.891 395.762 882.246 401.022 884.577 407.452C886.261 412.1 877.508 424.837 874.927 429.28L818.913 525.389C812.365 536.683 805.71 547.914 798.95 559.082C797.129 562.09 792.297 570.509 790.349 573.03C789.464 571.182 789.657 570.568 789.429 568.434Z"/><path d="M663.305 444.657C667.53 444.56 674.771 443.495 678.577 445.353C679.939 446.018 680.437 446.743 680.847 448.162C682.45 453.71 681.561 461.363 681.546 467.139C681.52 477.239 680.199 530.915 682.467 535.982C685.154 541.986 719.744 536.052 726.52 538.695C728.356 539.411 729.588 540.67 730.311 542.497C731.39 545.228 731.979 553.731 730.508 556.302C729.482 558.097 727.836 558.454 725.993 558.954C716.991 559.238 664.726 560.163 659.959 557.438C659.144 554.648 658.677 551.424 658.654 548.506C658.422 518.321 658.894 488.129 658.826 457.944C658.82 455.345 658.856 452.75 658.907 450.152C658.974 446.706 660.379 445.865 663.305 444.657Z"/><path fill="#C60C30" d="M753.983 537.053C759.724 536.626 764.303 537.315 764.876 544.25C765.321 549.641 757.964 556.201 754.515 560.079C756.84 560.036 762.167 559.513 764.328 560.339C764.728 560.492 764.606 564.135 764.26 564.168C758.959 564.659 752.938 564.382 747.461 564.4C744.804 564.071 749.323 559.685 749.98 558.85C752.953 555.075 760.637 549.356 760.42 544.238C760.295 541.298 755.782 539.076 753.646 541.815C752.839 542.281 751.91 545.425 751.63 545.598C745.619 549.297 746.639 540.802 753.983 537.053Z"/><path fill="#C60C30" d="M563.726 536.562C568.514 536.688 571.74 538.447 572.396 543.503C573.217 544.15 570.68 548.989 570.225 548.682C573.339 550.78 574.447 556.426 573.228 559.188C570.631 565.071 566.011 565.606 560.73 564.078C558.872 563.54 555.831 559.681 556.694 557.804C556.902 557.318 559.829 556.916 560.29 556.823C561.186 558.19 560.822 559.529 562.185 560.096C568.904 562.894 573.086 552.42 565.999 550.856C564.927 550.793 562.479 550.75 563.213 548.443C564.005 545.95 571.102 546.892 567.028 541.47C565.602 539.572 561.63 540.452 560.868 542.66C560.674 543.222 556.956 543.417 556.569 542.645C556.535 539.133 561.947 537.071 563.726 536.562Z"/><path fill="#C60C30" d="M378.161 539.745C378.751 539.716 379.036 539.706 379.036 540.475C379.031 548.324 379.575 556.6 378.918 564.334C378.933 564.153 375.269 566.009 375.041 563.125C375.037 557.278 375.312 550.305 374.764 544.862C374.697 544.201 369.001 546.339 371.68 540.656C372.038 539.898 377.436 539.796 378.161 539.745Z"/><path fill="#525576" d="M787.39 576.075L787.896 577.028C785.421 581.092 781.98 587.4 778.855 590.89L776.706 590.412C782.99 584.431 783.196 583.632 787.39 576.075Z"/><path fill="#003087" d="M789.429 568.434C789.657 570.568 789.464 571.182 790.349 573.03C789.659 574.422 788.694 575.599 787.896 577.028L787.39 576.075C788.496 573.338 788.755 571.617 789.334 568.873L789.429 568.434Z"/></svg>
