<?xml version="1.0" encoding="utf-8" ?><svg xmlns="http://www.w3.org/2000/svg" xmlns:xlink="http://www.w3.org/1999/xlink" width="1024" height="1024" viewBox="0 0 1024 1024"><path fill="white" d="M0 0L1024 0L1024 1024L0 1024L0 0Z"/><path fill="#010652" d="M500.737 180.723C510.289 180.238 520.848 180.656 530.407 181.08C612.946 184.756 690.718 220.786 746.892 281.373C756.634 292.025 764.372 301.166 772.287 313.393C794.105 347.65 804.875 387.782 803.139 428.36C800.303 490.536 777.132 545.172 730.975 587.339L730.958 418.948L730.959 373.083C730.958 349.863 732.77 328.757 714.841 310.706C695.931 291.669 677.569 292.957 652.936 292.845L610.424 292.759L480.375 292.85L390.449 292.873C376.154 292.896 361.487 292.427 347.287 293.212C333.012 294.002 322.189 299.878 312.158 309.456C291.99 328.712 294.828 350.904 294.79 375.999C294.606 394.306 294.562 412.613 294.659 430.921L294.671 616.771C287.556 610.922 280.576 604.91 273.738 598.74C230.876 559.375 203.121 497.541 206.89 438.962C210.666 380.29 238.159 323.623 277.923 280.911C335.949 219.26 416.111 183.216 500.737 180.723Z"/><path fill="#010652" d="M831.043 450.546L831.918 450.805C834.868 469.131 837.08 484.357 837.831 503.128C840.881 576.738 818.918 649.213 775.52 708.748C724.478 779.883 647.091 827.633 560.618 841.347C475.989 854.22 389.71 832.98 320.729 782.292C252.393 732.5 203.144 654.11 189.978 570.395C187.24 552.984 186.505 537.336 186.369 519.699C187.707 519.798 188.925 519.797 190.26 519.846C196.731 556.798 230.126 603.436 257.253 628.747C268.558 639.295 281.864 648.607 294.5 657.574C294.367 678.962 294.242 695.907 310.484 712.753C324.845 727.648 339.11 729.945 358.951 730.082L577.887 730.007L648.022 730.19C659.459 730.171 672.701 730.515 683.688 729.321C704.323 727.08 724.962 709.091 728.932 688.411C731.975 672.561 731.038 651.014 731.007 633.989C735.65 630.366 740.143 626.556 744.476 622.568C794.453 576.625 828.192 519.682 831.043 450.546Z"/><path d="M402.509 381.463L459.044 381.372L459.026 479.481L559.44 479.457L559.396 381.42L616.004 381.521L616.036 634.855L606.25 634.936L559.467 634.95L559.275 527.655C526.892 526.828 491.63 527.546 459.027 527.57L459.164 635.006L402.488 635.016L402.509 381.463Z"/><path d="M676.085 631.237L682.525 631.295L682.508 678.933L689.359 678.977L689.311 685.466L682.374 685.474L682.403 702.418L675.908 702.233C675.796 697.108 676.646 691.016 675.386 686.421C674.106 685.074 674.565 685.499 672.125 685.327L641.43 685.268L641.465 678.537C644.839 674.795 648.792 668.643 651.73 664.332C657.538 655.839 663.274 647.297 668.938 638.707C671.07 635.534 672.683 631.905 676.085 631.237Z"/><path fill="#F4E4C1" d="M675.634 638.817C676.506 641.298 675.958 674.708 675.927 679.094C667.575 679.178 658.569 679.264 650.257 679.035C650.02 675.76 667.731 652.221 670.018 647.59C670.64 646.331 674.603 640.279 675.634 638.817Z"/><path fill="#003087" d="M186.53 503.829L187.409 503.59C187.905 508.459 189.193 515.046 190.26 519.846C188.925 519.797 187.707 519.798 186.369 519.699C186.257 514.687 186.38 508.864 186.53 503.829Z"/><path fill="#7A7A86" d="M186.53 503.829C186.517 503.314 186.351 500.149 186.676 499.791C186.765 499.791 186.854 499.792 186.942 499.792C187.263 500.306 187.243 500.371 187.393 500.966C187.43 501.824 187.412 502.725 187.409 503.59L186.53 503.829Z"/><path fill="#5C5B73" d="M831.473 447.862C831.66 448.894 831.784 449.768 831.918 450.805L831.043 450.546L830.751 448.629L831.473 447.862Z"/><path fill="#C7C7CE" d="M830.751 448.629C830.346 445.471 831.531 445.606 831.475 447.168L831.473 447.862L830.751 448.629Z"/></svg>
